# xmcd
#
# Track frame offsets:
#	150
#	19417
#	33972
#	53865
#	66743
#	83074
#	104573
#	122282
#	141102
#	158164
#	176161
#	195757
#	215223
#	230547
#
# Disc length: 3304 seconds
#
# Revision: 2
# Processed by: cddbd v1.5.2PL0 Copyright (c) Steve Scherf et al.
# Submitted via: audiograbber 1.83.01
#
DISCID=c60ce60e
DTITLE=SD114 - Star Disc SD114 Country
DYEAR=2004
DGENRE=Karaoke
TTITLE0=Tim McGraw - Watch The Wind Blow By
TTITLE1=Martina McBride - In My Daughter's Eyes
TTITLE2=Gary Allan - Songs About Rain
TTITLE3=Mark Wills - That's A Woman
TTITLE4=Carolyn Dawn Johnson - Simple Life
TTITLE5=Donovan Chapman - There Is No War
TTITLE6=Patty Loveless - On Your Way Home
TTITLE7=Darryl Worley - I Will Hold My Ground
TTITLE8=Rebecca Lynn Howard - I Need A Vacation
TTITLE9=Cross Canadian Ragweed - Constantly
TTITLE10=Amanda Wilkinson - Gone From This Love Too Long
TTITLE11=John Mellencamp - Teardrops Will Fall
TTITLE12=Sonya Isaacs - No Regrets Yet
TTITLE13=Leann Rimes - This Love
EXTD=
EXTT0=
EXTT1=
EXTT2=
EXTT3=
EXTT4=
EXTT5=
EXTT6=
EXTT7=
EXTT8=
EXTT9=
EXTT10=
EXTT11=
EXTT12=
EXTT13=
PLAYORDER=
